HIERARCHY
ROOT Hips
{
	OFFSET 0.00000 0.00000 0.00000
	CHANNELS 6 Xposition Yposition Zposition Zrotation Yrotation Xrotation 
	JOINT LHipJoint
	{
		OFFSET 0 0 0
		CHANNELS 3 Zrotation Yrotation Xrotation
		JOINT LeftHip
		{
			OFFSET 1.56857 -1.73443 1.15205
			CHANNELS 3 Zrotation Yrotation Xrotation
			JOINT LeftKnee
			{
				OFFSET 2.39362 -6.57643 0.00000
				CHANNELS 3 Zrotation Yrotation Xrotation
				JOINT LeftAnkle
				{
					OFFSET 2.50952 -6.89485 0.00000
					CHANNELS 3 Zrotation Yrotation Xrotation
					JOINT LeftToe
					{
						OFFSET 0.17171 -0.47178 1.88682
						CHANNELS 3 Zrotation Yrotation Xrotation
						End Site
						{
							OFFSET 0.00000 -0.00000 0.98146
						}
					}
				}
			}
		}
	}
	JOINT RHipJoint
	{
		OFFSET 0 0 0
		CHANNELS 3 Zrotation Yrotation Xrotation
		JOINT RightHip
		{
			OFFSET -1.28153 -1.73443 1.15205
			CHANNELS 3 Zrotation Yrotation Xrotation
			JOINT RightKnee
			{
				OFFSET -2.26861 -6.23296 0.00000
				CHANNELS 3 Zrotation Yrotation Xrotation
				JOINT RightAnkle
				{
					OFFSET -2.54143 -6.98254 0.00000
					CHANNELS 3 Zrotation Yrotation Xrotation
					JOINT RightToe
					{
						OFFSET -0.23309 -0.64041 1.93119
						CHANNELS 3 Zrotation Yrotation Xrotation
						End Site
						{
							OFFSET -0.00000 -0.00000 1.02013
						}
					}
				}
			}
		}
	}
	JOINT lowerback
	{
		OFFSET 0 0 0
		CHANNELS 3 Zrotation Yrotation Xrotation
		JOINT Chest
		{
			OFFSET -0.07096 2.10460 -0.27878
			CHANNELS 3 Zrotation Yrotation Xrotation
			JOINT Chest2
			{
				OFFSET -0.00826 2.13662 -0.08279
				CHANNELS 3 Zrotation Yrotation Xrotation
				JOINT lowerneck
				{
					OFFSET 0 0 0
					CHANNELS 3 Zrotation Yrotation Xrotation
					JOINT Neck
					{
						OFFSET 0.03239 1.77799 0.24435
						CHANNELS 3 Zrotation Yrotation Xrotation
						JOINT Head
						{
							OFFSET 0.01026 1.74194 -0.49664
							CHANNELS 3 Zrotation Yrotation Xrotation
							End Site
							{
								OFFSET 0.00170 1.83057 -0.19653
							}
						}
					}
				}
				JOINT LeftCollar
				{
					OFFSET 0 0 0
					CHANNELS 3 Zrotation Yrotation Xrotation
					JOINT LeftShoulder
					{
						OFFSET 3.19178 1.35907 -0.31412
CHANNELS 3 Zrotation Xrotation Yrotation
						JOINT LeftElbow
						{
OFFSET 0 -4.852470 -0.000000
CHANNELS 3 Zrotation Xrotation Yrotation
							JOINT LeftWrist
							{
OFFSET 0 -3.555840 0.000000
CHANNELS 3 Zrotation Xrotation Yrotation
								JOINT lhand
								{
									OFFSET 0 0 0
CHANNELS 3 Zrotation Xrotation Yrotation
									JOINT LFingers
									{
OFFSET 0 -0.693200 0.000000
CHANNELS 3 Zrotation Xrotation Yrotation
										End Site
										{
OFFSET 0 -0.558880 0.000000
										}
									}
								}
								JOINT LThumb
								{
OFFSET 0 0.000000 0.000000
CHANNELS 3 Zrotation Xrotation Yrotation
									End Site
									{
OFFSET 0 -0.567410 0.567410
									}
								}
							}
						}
					}
				}
				JOINT RightCollar
				{
					OFFSET 0 0 0
					CHANNELS 3 Zrotation Yrotation Xrotation
					JOINT RightShoulder
					{
						OFFSET -3.28999 1.24191 -0.26899
CHANNELS 3 Zrotation Xrotation Yrotation
						JOINT RightElbow
						{
OFFSET 0 -4.644620 0.000000
CHANNELS 3 Zrotation Xrotation Yrotation
							JOINT RightWrist
							{
OFFSET 0 -3.407030 0.000000
CHANNELS 3 Zrotation Xrotation Yrotation
								JOINT rhand
								{
									OFFSET 0 0 0
CHANNELS 3 Zrotation Xrotation Yrotation
									JOINT RFingers
									{
OFFSET 0 -0.619580 0.000000
CHANNELS 3 Zrotation Xrotation Yrotation
										End Site
										{
OFFSET 0 -0.499520 0.000000
										}
									}
								}
								JOINT RThumb
								{
OFFSET 0 0.000000 0.000000
CHANNELS 3 Zrotation Xrotation Yrotation
									End Site
									{
OFFSET 0 -0.507150 0.507150
									}
								}
							}
						}
					}
				}
			}
		}
	}
}
MOTION
Frames: 10
Frame Time: 0.008333333333333333
-29.278600 17.079500 1.337200 29.793700 84.465000 28.965600 0.000000 0.000000 0.000000 -16.982900 3.725800 9.350400 0.000400 -0.122000 -0.335200 0.186300 8.873400 -15.615500 0.225500 -3.056800 -8.436900 0.000000 0.000000 0.000000 12.418200 -5.237400 4.417900 -0.053000 -1.485100 4.084700 -0.499600 6.178000 -12.667400 -0.614200 -5.015900 13.953900 -5.126500 1.510300 3.676900 -0.700800 1.776000 -0.385900 2.044100 0.957000 -2.595000 3.247400 0.843500 -20.241100 -0.412200 0.338700 20.027300 -0.626400 0.395400 9.699000 0.000000 0.000000 0.000000 3.875100 1.959600 -39.831100 11.785700 -19.482500 2.030200 14.348000 11.364900 25.345200 0.000000 0.000000 0.000000 -7.125000 0.000000 0.000000 -9.282300 4.216100 -8.691700 0.000000 0.000000 0.000000 -3.905500 5.082800 41.271100 -17.094600 -26.982300 -4.130200 -10.508100 8.971200 33.161200 0.000000 0.000000 0.000000 7.125000 0.000000 -0.000000 26.083600 61.680000 -10.999200
-29.283700 17.078941 1.342677 28.980572 84.608915 28.185491 0.000000 0.000000 0.000000 -16.782748 3.692654 9.234003 0.000268 -0.108402 -0.297900 0.181410 8.879894 -15.555060 0.238704 -3.143993 -8.680046 0.000000 0.000000 0.000000 12.673952 -5.027379 4.514030 -0.050327 -1.448074 3.982639 -0.513068 5.740724 -12.789756 -0.570341 -4.836433 13.442694 -4.997352 1.522110 3.702864 -0.696548 1.792542 -0.473471 1.973171 0.966908 -2.697390 3.144357 0.808474 -20.143286 -0.276197 0.299586 20.295811 -0.567406 0.391528 9.775286 0.000000 0.000000 0.000000 3.879856 1.827354 -39.528200 11.743474 -19.418807 2.016196 14.660512 11.788575 25.500030 0.000000 0.000000 0.000000 -7.125000 0.000000 0.000000 -9.102169 4.017684 -8.552722 0.000000 0.000000 0.000000 -3.833792 5.148060 41.501716 -17.163736 -27.073146 -4.161548 -10.779751 8.446070 32.478858 0.000000 0.000000 0.000000 7.125000 0.000000 0.000000 25.162394 61.140778 -10.259759
-29.279046 17.079382 1.339783 31.078733 84.686722 30.243184 0.000000 0.000000 0.000000 -16.873322 3.932337 9.097390 0.000073 -0.046844 -0.128649 0.200638 8.477225 -15.367347 0.219073 -3.013018 -8.314981 0.000000 0.000000 0.000000 12.432306 -5.334727 4.548263 -0.049383 -1.434158 3.944187 -0.512190 5.942065 -12.796074 -0.594307 -4.934521 13.722062 -5.068157 1.479095 3.677253 -0.742754 1.734217 -0.443873 1.970004 0.937341 -2.648979 3.282625 0.857765 -20.446177 -0.590066 0.393367 20.741941 -0.687327 0.414740 9.991787 0.000000 0.000000 0.000000 3.817298 1.561734 -39.169431 11.673994 -19.313883 1.993195 15.254748 11.959095 25.898326 0.000000 0.000000 0.000000 -7.125000 0.000000 0.000000 -8.769301 3.533167 -8.311668 0.000000 0.000000 0.000000 -3.933149 5.284277 41.878196 -17.300101 -27.251657 -4.223875 -11.109271 8.439035 32.358715 0.000000 0.000000 0.000000 7.125000 0.000000 0.000000 24.708965 61.113338 -10.045534
-29.285907 17.078629 1.343325 27.402704 84.878467 26.534399 0.000000 0.000000 0.000000 -16.624378 3.186070 9.602396 0.000700 -0.171061 -0.470053 0.193664 9.071696 -15.946375 0.166710 -2.623576 -7.232723 0.000000 0.000000 0.000000 12.922909 -5.422447 4.492665 -0.050705 -1.453134 3.996521 -0.515575 5.975946 -12.839873 -0.574204 -4.852699 13.488821 -4.641510 1.490876 3.744018 -0.671558 1.767017 -0.399912 1.801975 0.946248 -2.632045 3.704980 1.040234 -20.544293 -1.052555 0.620981 20.701587 -0.887462 0.495726 10.003115 0.000000 0.000000 0.000000 3.873446 1.354959 -39.370897 11.712947 -19.372688 2.006043 17.443779 10.662333 25.826973 0.000000 0.000000 0.000000 -7.125000 0.000000 0.000000 -7.438820 3.273597 -7.063992 0.000000 0.000000 0.000000 -3.930510 5.352509 41.920733 -17.306870 -27.260554 -4.226938 -10.394804 8.188535 33.343328 0.000000 0.000000 0.000000 7.125000 0.000000 0.000000 26.377547 61.812515 -11.215852
-29.286231 17.079271 1.343417 28.938951 84.726018 28.020762 0.000000 0.000000 0.000000 -16.780913 3.511411 9.517559 0.000529 -0.140590 -0.386344 0.199308 8.883773 -15.809514 0.194365 -2.837144 -7.825785 0.000000 0.000000 0.000000 12.655973 -5.477493 4.764595 -0.040878 -1.304320 3.586655 -0.491592 5.999882 -12.550627 -0.613611 -5.013378 13.946792 -4.788114 1.533820 3.782500 -0.747710 1.816061 -0.354848 1.802058 0.971677 -2.612666 3.681894 1.110092 -20.471950 -1.016144 0.716716 20.525473 -0.856723 0.539715 9.929297 0.000000 0.000000 0.000000 3.791810 1.259166 -39.198212 11.777120 -19.469575 2.027410 16.386748 11.297030 26.442716 0.000000 0.000000 0.000000 -7.125000 0.000000 0.000000 -8.128230 2.816069 -7.798989 0.000000 0.000000 0.000000 -3.911704 5.360141 41.907840 -17.285252 -27.232312 -4.217062 -10.137529 8.036276 33.889230 0.000000 0.000000 0.000000 7.125000 0.000000 0.000000 27.186237 62.226808 -11.854575
-29.283200 17.076663 1.344426 28.346432 84.707995 27.408556 0.000000 0.000000 0.000000 -16.628594 3.765096 9.427180 0.000268 -0.112170 -0.308234 0.223825 8.548552 -15.769222 0.133247 -2.351482 -6.478152 0.000000 0.000000 0.000000 12.701820 -5.557451 4.790667 -0.040247 -1.295216 3.561561 -0.485083 6.002412 -12.471735 -0.595299 -4.938583 13.733637 -4.815341 1.548066 3.755819 -0.689088 1.837550 -0.317429 1.877596 0.981367 -2.563317 3.677371 1.186970 -20.509799 -1.054990 0.834668 20.610079 -0.852753 0.590308 9.969503 0.000000 0.000000 0.000000 3.715477 1.268489 -39.625227 11.855289 -19.587197 2.053540 16.588150 10.860585 25.944671 0.000000 0.000000 0.000000 -7.125000 0.000000 0.000000 -7.967043 3.288274 -7.571514 0.000000 0.000000 0.000000 -3.881389 5.334830 41.631002 -17.095358 -26.983319 -4.130494 -10.461301 8.361586 33.176340 0.000000 0.000000 0.000000 7.125000 0.000000 0.000000 26.148324 61.681528 -11.030444
-29.282129 17.077857 1.346032 26.866188 84.694318 25.786907 0.000000 0.000000 0.000000 -16.367448 4.100806 9.425884 0.000254 -0.109253 -0.300111 0.187826 8.634190 -15.362386 0.254024 -3.236576 -8.938566 0.000000 0.000000 0.000000 12.852302 -5.592085 4.936076 -0.040175 -1.293721 3.557462 -0.487061 5.965939 -12.492570 -0.586024 -4.900780 13.625880 -4.721280 1.558729 3.870897 -0.641660 1.853572 -0.212743 1.871646 0.985772 -2.519309 3.539884 1.303945 -20.490160 -0.795243 0.973764 20.398407 -0.718222 0.671254 9.892386 0.000000 0.000000 0.000000 3.713354 1.305376 -39.916966 11.940896 -19.715903 2.082332 17.436536 10.140872 25.615222 0.000000 0.000000 0.000000 -7.125000 0.000000 0.000000 -7.426443 3.491031 -7.020670 0.000000 0.000000 0.000000 -3.803982 5.141598 41.349842 -16.770376 -26.554083 -3.984140 -10.321991 8.559572 32.722835 0.000000 0.000000 0.000000 7.125000 0.000000 0.000000 25.864486 61.246469 -10.632899
-29.277279 17.077721 1.349034 25.991320 84.517982 24.894524 0.000000 0.000000 0.000000 -16.485956 3.868110 9.631954 0.000287 -0.115398 -0.317029 0.196547 8.907965 -15.798086 0.248768 -3.209089 -8.861303 0.000000 0.000000 0.000000 12.861383 -5.561026 4.953273 -0.039762 -1.287199 3.539247 -0.479309 6.174289 -12.419492 -0.628124 -5.071397 14.112266 -4.719375 1.628356 3.925886 -0.672080 1.942381 -0.223110 1.831712 1.030984 -2.565926 3.863555 1.381569 -20.682696 -1.105900 1.048690 20.602338 -0.870077 0.696201 10.005892 0.000000 0.000000 0.000000 3.791701 1.368331 -40.335573 11.942864 -19.718898 2.082992 16.017054 10.505378 25.720501 0.000000 0.000000 0.000000 -7.125000 0.000000 0.000000 -8.295083 3.600642 -7.841826 0.000000 0.000000 0.000000 -3.692872 5.287767 41.101767 -16.578250 -26.298435 -3.898673 -10.575272 9.465940 32.965600 0.000000 0.000000 0.000000 7.125000 0.000000 0.000000 25.828194 61.523365 -10.787893
-29.268400 17.075433 1.350900 23.622116 84.466375 22.573993 0.000000 0.000000 0.000000 -15.982390 4.524045 9.344461 0.000000 -0.038882 -0.106760 0.233163 8.248408 -15.569286 0.178133 -2.715624 -7.488097 0.000000 0.000000 0.000000 13.183195 -5.239447 5.053326 -0.038319 -1.263052 3.472880 -0.500133 5.796634 -12.637475 -0.477136 -4.429784 12.289039 -4.594304 1.649712 3.814750 -0.581861 1.984702 -0.201199 1.855660 1.048532 -2.482558 3.966189 1.481916 -20.771244 -1.248249 1.190518 20.789308 -0.916709 0.755068 10.094591 0.000000 0.000000 0.000000 3.792949 1.584827 -40.896869 12.046599 -19.874499 2.118076 14.956610 10.236424 25.865617 0.000000 0.000000 0.000000 -7.125000 0.000000 0.000000 -8.947245 3.608945 -8.471938 0.000000 0.000000 0.000000 -3.726691 5.497708 40.834918 -16.566067 -26.282191 -3.893270 -10.306018 9.522735 32.439065 0.000000 0.000000 0.000000 7.125000 0.000000 0.000000 25.623027 60.989884 -10.372227
-29.260751 17.075691 1.350339 18.449076 84.563307 17.397288 0.000000 0.000000 0.000000 -15.617410 3.813289 9.854411 0.000862 -0.187178 -0.514335 0.190120 9.102377 -15.934414 0.222939 -3.039282 -8.388137 0.000000 0.000000 0.000000 13.789978 -5.206488 5.124731 -0.036955 -1.240186 3.409836 -0.499202 5.836985 -12.629111 -0.524764 -4.642074 12.890522 -4.080374 1.641776 3.750872 -0.451040 2.003801 -0.130512 1.705216 1.048475 -2.361528 4.093933 1.514350 -20.614648 -1.327027 1.215812 20.497677 -0.961975 0.763368 9.963707 0.000000 0.000000 0.000000 3.687695 1.798474 -40.724170 12.082724 -19.928563 2.130398 14.528739 10.342245 25.655338 0.000000 0.000000 0.000000 -7.125000 0.000000 0.000000 -9.192113 3.880320 -8.663226 0.000000 0.000000 0.000000 -3.681213 5.486138 40.792862 -16.552800 -26.264325 -3.887511 -10.853018 9.317790 31.726390 0.000000 0.000000 0.000000 7.125000 0.000000 0.000000 24.422594 60.483300 -9.557486
